<mxfile host="app.diagrams.net" agent="Mozilla/5.0 (Windows NT 10.0; Win64; x64) AppleWebKit/537.36 (KHTML, like Gecko) Chrome/130.0.0.0 Safari/537.36" version="24.8.4">
  <diagram name="Page-1" id="Gzcar9ICMFwq3a7K9qGa">
    <mxGraphModel dx="378" dy="196" grid="1" gridSize="10" guides="1" tooltips="1" connect="1" arrows="1" fold="1" page="1" pageScale="1" pageWidth="850" pageHeight="1100" math="1" shadow="0">
      <root>
        <mxCell id="0" />
        <mxCell id="1" parent="0" />
        <mxCell id="ueuT5YKC7Wdmln2GNWFX-12" value="Y" style="text;html=1;align=center;verticalAlign=middle;whiteSpace=wrap;rounded=0;" parent="1" vertex="1">
          <mxGeometry x="118" y="162.5" width="15" height="30" as="geometry" />
        </mxCell>
        <mxCell id="KgR5R17OVCxoudx-IaxD-1" value="Leveling Table" style="rounded=0;whiteSpace=wrap;html=1;fillColor=#fff2cc;strokeColor=#d6b656;rotation=4;" parent="1" vertex="1">
          <mxGeometry x="220" y="154" width="180" height="20" as="geometry" />
        </mxCell>
        <mxCell id="KgR5R17OVCxoudx-IaxD-2" value="" style="ellipse;whiteSpace=wrap;html=1;aspect=fixed;" parent="1" vertex="1">
          <mxGeometry x="230" y="170" width="30" height="30" as="geometry" />
        </mxCell>
        <mxCell id="KgR5R17OVCxoudx-IaxD-3" value="" style="verticalLabelPosition=bottom;verticalAlign=top;html=1;shape=mxgraph.basic.acute_triangle;dx=0.5;" parent="1" vertex="1">
          <mxGeometry x="352.5" y="180" width="40" height="20" as="geometry" />
        </mxCell>
        <mxCell id="KgR5R17OVCxoudx-IaxD-4" value="" style="endArrow=none;html=1;rounded=0;" parent="1" edge="1">
          <mxGeometry width="50" height="50" relative="1" as="geometry">
            <mxPoint x="210" y="200" as="sourcePoint" />
            <mxPoint x="400" y="200" as="targetPoint" />
          </mxGeometry>
        </mxCell>
        <mxCell id="KgR5R17OVCxoudx-IaxD-5" value="" style="shape=mxgraph.signs.tech.video_camera;html=1;pointerEvents=1;fillColor=#000000;strokeColor=none;verticalLabelPosition=bottom;verticalAlign=top;align=center;rotation=90;" parent="1" vertex="1">
          <mxGeometry x="282.5" y="17" width="55" height="30" as="geometry" />
        </mxCell>
        <mxCell id="KgR5R17OVCxoudx-IaxD-6" value="" style="shape=dimension;direction=west;whiteSpace=wrap;html=1;align=center;points=[];verticalAlign=top;spacingTop=-15;labelBackgroundColor=none;rotation=-90;" parent="1" vertex="1">
          <mxGeometry x="226" y="70" width="62" height="40" as="geometry" />
        </mxCell>
        <mxCell id="KgR5R17OVCxoudx-IaxD-7" value="" style="endArrow=none;html=1;rounded=0;" parent="1" edge="1">
          <mxGeometry width="50" height="50" relative="1" as="geometry">
            <mxPoint x="280" y="121" as="sourcePoint" />
            <mxPoint x="340" y="121" as="targetPoint" />
          </mxGeometry>
        </mxCell>
        <mxCell id="KgR5R17OVCxoudx-IaxD-8" value="" style="endArrow=none;html=1;rounded=0;" parent="1" edge="1">
          <mxGeometry width="50" height="50" relative="1" as="geometry">
            <mxPoint x="280" y="151" as="sourcePoint" />
            <mxPoint x="280" y="121" as="targetPoint" />
          </mxGeometry>
        </mxCell>
        <mxCell id="KgR5R17OVCxoudx-IaxD-9" value="" style="endArrow=none;html=1;rounded=0;" parent="1" edge="1">
          <mxGeometry width="50" height="50" relative="1" as="geometry">
            <mxPoint x="280" y="151" as="sourcePoint" />
            <mxPoint x="340" y="155" as="targetPoint" />
          </mxGeometry>
        </mxCell>
        <mxCell id="KgR5R17OVCxoudx-IaxD-10" value="" style="endArrow=none;html=1;rounded=0;" parent="1" edge="1">
          <mxGeometry width="50" height="50" relative="1" as="geometry">
            <mxPoint x="340" y="155" as="sourcePoint" />
            <mxPoint x="340" y="121" as="targetPoint" />
          </mxGeometry>
        </mxCell>
        <mxCell id="KgR5R17OVCxoudx-IaxD-11" value="Sample" style="text;html=1;align=center;verticalAlign=middle;whiteSpace=wrap;rounded=0;" parent="1" vertex="1">
          <mxGeometry x="280" y="121" width="60" height="30" as="geometry" />
        </mxCell>
        <mxCell id="ueuT5YKC7Wdmln2GNWFX-3" value="d" style="text;html=1;align=center;verticalAlign=middle;whiteSpace=wrap;rounded=0;" parent="1" vertex="1">
          <mxGeometry x="200" y="75" width="60" height="30" as="geometry" />
        </mxCell>
        <mxCell id="ueuT5YKC7Wdmln2GNWFX-5" value="" style="endArrow=classic;html=1;rounded=0;" parent="1" edge="1">
          <mxGeometry width="50" height="50" relative="1" as="geometry">
            <mxPoint x="148" y="186.43" as="sourcePoint" />
            <mxPoint x="148" y="154" as="targetPoint" />
          </mxGeometry>
        </mxCell>
        <mxCell id="ueuT5YKC7Wdmln2GNWFX-6" value="" style="endArrow=classic;html=1;rounded=0;" parent="1" edge="1">
          <mxGeometry width="50" height="50" relative="1" as="geometry">
            <mxPoint x="148" y="186.43" as="sourcePoint" />
            <mxPoint x="180" y="186" as="targetPoint" />
          </mxGeometry>
        </mxCell>
        <mxCell id="ueuT5YKC7Wdmln2GNWFX-9" value="Z" style="text;html=1;align=center;verticalAlign=middle;whiteSpace=wrap;rounded=0;" parent="1" vertex="1">
          <mxGeometry x="143" y="132.5" width="27" height="30" as="geometry" />
        </mxCell>
        <mxCell id="ueuT5YKC7Wdmln2GNWFX-10" value="X" style="text;html=1;align=center;verticalAlign=middle;whiteSpace=wrap;rounded=0;" parent="1" vertex="1">
          <mxGeometry x="180" y="162.5" width="10" height="30" as="geometry" />
        </mxCell>
        <mxCell id="ueuT5YKC7Wdmln2GNWFX-11" value="" style="shape=mxgraph.sysml.x;" parent="1" vertex="1">
          <mxGeometry x="133" y="182" width="10" height="9" as="geometry" />
        </mxCell>
        <mxCell id="ueuT5YKC7Wdmln2GNWFX-14" value="" style="html=1;verticalLabelPosition=bottom;labelBackgroundColor=#ffffff;verticalAlign=top;shadow=0;dashed=0;strokeWidth=2;shape=mxgraph.ios7.misc.circle;strokeColor=#222222;fillColor=none;" parent="1" vertex="1">
          <mxGeometry x="132" y="180.5" width="12" height="12" as="geometry" />
        </mxCell>
        <mxCell id="sV86rb77n-vsC5QNydZx-2" value="$$(X_0, Y_0, Z_0)&#xa;$$" style="text;align=center;verticalAlign=middle;whiteSpace=wrap;rounded=0;fontSize=8;" parent="1" vertex="1">
          <mxGeometry x="315" y="100" width="46" height="16" as="geometry" />
        </mxCell>
        <mxCell id="sV86rb77n-vsC5QNydZx-5" value="" style="shape=ellipse;fillColor=#0065FF;strokeColor=none;html=1;sketch=0;" parent="1" vertex="1">
          <mxGeometry x="305" y="116" width="10" height="10" as="geometry" />
        </mxCell>
      </root>
    </mxGraphModel>
  </diagram>
</mxfile>
